<svg width="20" height="20" viewBox="0 0 20 20" fill="none" xmlns="http://www.w3.org/2000/svg">
<path d="M0 10.0002C0 14.095 2.46234 17.6128 5.98586 19.1595C5.95773 18.4612 5.98086 17.6229 6.15992 16.8631C6.35219 16.0513 7.44664 11.4141 7.44664 11.4141C7.44664 11.4141 7.12719 10.7755 7.12719 9.83187C7.12719 8.34992 7.98609 7.24312 9.05578 7.24312C9.96539 7.24312 10.4048 7.92633 10.4048 8.74445C10.4048 9.65883 9.82164 11.0266 9.52172 12.2934C9.27117 13.3541 10.0536 14.2194 11.1001 14.2194C12.9948 14.2194 14.2709 11.7859 14.2709 8.90258C14.2709 6.71086 12.7947 5.07039 10.1098 5.07039C7.07633 5.07039 5.18656 7.33258 5.18656 9.85945C5.18656 10.7307 5.44344 11.3451 5.84578 11.8209C6.03078 12.0394 6.05648 12.1273 5.98953 12.3782C5.94156 12.5622 5.83141 13.0052 5.78578 13.1807C5.71922 13.434 5.51398 13.5245 5.28508 13.431C3.88789 12.8606 3.23719 11.3305 3.23719 9.61055C3.23719 6.76984 5.63297 3.36359 10.3842 3.36359C14.2022 3.36359 16.7151 6.12641 16.7151 9.09211C16.7151 13.015 14.5341 15.9457 11.3193 15.9457C10.2397 15.9457 9.22414 15.3621 8.87625 14.6992C8.87625 14.6992 8.2957 17.0033 8.17273 17.4482C7.9607 18.2192 7.5457 18.9898 7.16625 19.5905C8.08637 19.8625 9.04089 20.0006 10.0004 20.0005C15.5226 20.0005 20.0001 15.5233 20.0001 10.0002C20.0001 4.47727 15.5226 0 10.0004 0C4.47766 0 0 4.47727 0 10.0002Z" fill="black"/>
</svg>
